<?xml version="1.0" encoding="UTF-8"?>
<!DOCTYPE svg PUBLIC "-//W3C//DTD SVG 1.1//EN" "http://www.w3.org/Graphics/SVG/1.1/DTD/svg11.dtd">
<svg xmlns="http://www.w3.org/2000/svg" version="1.1" width="1600px" height="1600px" style="shape-rendering:geometricPrecision; text-rendering:geometricPrecision; image-rendering:optimizeQuality; fill-rule:evenodd; clip-rule:evenodd" xmlns:xlink="http://www.w3.org/1999/xlink">
<g><path style="opacity:0.995" fill="#fefffe" d="M 354.5,141.5 C 418.167,141.5 481.833,141.5 545.5,141.5C 545.5,265.5 545.5,389.5 545.5,513.5C 794.5,513.5 1043.5,513.5 1292.5,513.5C 1292.5,565.167 1292.5,616.833 1292.5,668.5C 1198.5,668.5 1104.5,668.5 1010.5,668.5C 1010.5,923.833 1010.5,1179.17 1010.5,1434.5C 946.833,1434.5 883.167,1434.5 819.5,1434.5C 819.5,1179.17 819.5,923.833 819.5,668.5C 728.167,668.5 636.833,668.5 545.5,668.5C 545.5,799.833 545.5,931.167 545.5,1062.5C 481.833,1062.5 418.167,1062.5 354.5,1062.5C 354.5,755.5 354.5,448.5 354.5,141.5 Z"/></g>
</svg>
